<svg xmlns="http://www.w3.org/2000/svg" x="0px" y="0px"
width="30" height="30"
viewBox="0 0 172 172"
style=" fill:#000000;"><g fill="none" fill-rule="nonzero" stroke="none" stroke-width="1" stroke-linecap="butt" stroke-linejoin="miter" stroke-miterlimit="10" stroke-dasharray="" stroke-dashoffset="0" font-family="none" font-weight="none" font-size="none" text-anchor="none" style="mix-blend-mode: normal"><path d="M0,172v-172h172v172z" fill="none"></path><g fill="#e74c3c"><path d="M86,11.46667c-34.83,0 -63.06667,28.23667 -63.06667,63.06667c0,41.47493 41.0048,61.32947 46.14187,65.95053c5.246,4.71853 9.5804,15.29653 11.32907,21.2936c0.84853,2.91253 3.2336,4.386 5.59573,4.44907c2.36787,-0.0688 4.7472,-1.54227 5.59573,-4.44907c1.74867,-5.99707 6.08307,-16.56933 11.32907,-21.2936c5.13707,-4.62107 46.14187,-24.4756 46.14187,-65.95053c0,-34.83 -28.23667,-63.06667 -63.06667,-63.06667zM86,91.73333c-9.50013,0 -17.2,-7.69987 -17.2,-17.2c0,-9.50013 7.69987,-17.2 17.2,-17.2c9.50013,0 17.2,7.69987 17.2,17.2c0,9.50013 -7.69987,17.2 -17.2,17.2z"></path></g></g></svg>