<?xml version="1.0" encoding="utf-8"?>
<svg width="35px" height="35px" viewBox="0 0 35 35" version="1.1" xmlns:xlink="http://www.w3.org/1999/xlink" xmlns="http://www.w3.org/2000/svg">
  <desc>Created with Lunacy</desc>
  <path d="M34 16L20.5 16C19.948 16 19.5 15.552 19.5 15L19.5 1C19.5 0.448 19.052 0 18.5 0L16.5 0C15.948 0 15.5 0.448 15.5 1L15.5 15C15.5 15.552 15.052 16 14.5 16L1 16C0.448 16 0 16.448 0 17L0 19C0 19.552 0.448 20 1 20L14.5 20C15.052 20 15.5 20.448 15.5 21L15.5 34C15.5 34.552 15.948 35 16.5 35L18.5 35C19.052 35 19.5 34.552 19.5 34L19.5 21C19.5 20.448 19.948 20 20.5 20L34 20C34.552 20 35 19.552 35 19L35 17C35 16.448 34.552 16 34 16" id="Icon" fill="#1D1D1B" stroke="none" />
</svg>