<svg xmlns="http://www.w3.org/2000/svg" viewBox="0 0 171.93 148.85"><defs><style>.cls-1{fill:#494949;}</style></defs><title>wind</title><g id="Layer_2" data-name="Layer 2"><g id="Layer_1-2" data-name="Layer 1"><path class="cls-1" d="M65.11,87.51a4,4,0,1,1,0-8,35.78,35.78,0,1,0-33.27-49,4,4,0,1,1-7.41-2.94A43.76,43.76,0,1,1,65.11,87.51Z"/><path class="cls-1" d="M64.24,87.51H4a4,4,0,0,1,0-8H64.24a4,4,0,0,1,0,8Z"/><path class="cls-1" d="M143.26,102.69a4,4,0,0,1,0-8A20.69,20.69,0,1,0,124,66.39a4,4,0,0,1-7.42-2.94,28.67,28.67,0,1,1,26.65,39.25Z"/><path class="cls-1" d="M142.72,102.69H4a4,4,0,0,1,0-8H142.72a4,4,0,1,1,0,8Z"/><path class="cls-1" d="M133.79,148.85a18.16,18.16,0,0,1-17-11.5,4,4,0,0,1,7.42-2.94,10.27,10.27,0,1,0,9.55-14.05,4,4,0,0,1,0-8,18.24,18.24,0,1,1,0,36.48Z"/><path class="cls-1" d="M133.47,120.35H4a4,4,0,0,1,0-8H133.47a4,4,0,0,1,0,8Z"/></g></g></svg>